<svg width="30" height="32" viewBox="0 0 30 32" fill="none" xmlns="http://www.w3.org/2000/svg">
<path opacity="0.3" fill-rule="evenodd" clip-rule="evenodd" d="M29.8616 13.9725C29.8114 13.7549 29.6887 13.561 29.5138 13.4222C29.3388 13.2835 29.1219 13.2081 28.8986 13.2087C28.2242 13.2045 27.567 12.9964 27.0133 12.6114C26.4597 12.2264 26.0356 11.6828 25.7969 11.0521C25.5425 10.392 25.4862 9.67203 25.6349 8.98038C25.7836 8.28873 26.1308 7.65546 26.634 7.1582C26.7905 7.00576 26.886 6.80152 26.9028 6.58377C26.9196 6.36602 26.8566 6.14961 26.7255 5.97497C26.0345 5.04748 25.2383 4.20326 24.3531 3.45897C24.2724 3.39012 24.179 3.33778 24.0782 3.30504C23.9773 3.27229 23.8711 3.25976 23.7654 3.26811C23.6597 3.27645 23.5566 3.3055 23.4622 3.35367C23.3677 3.40183 23.2837 3.46809 23.2149 3.54874C22.7599 4.06388 22.1565 4.42546 21.4876 4.58369C20.8187 4.74192 20.1173 4.68898 19.4797 4.43232C18.8366 4.1347 18.299 3.64893 17.938 3.03921C17.577 2.4295 17.4096 1.72469 17.4578 1.01775C17.4733 0.800743 17.406 0.585925 17.2696 0.416447C17.1332 0.24697 16.9377 0.135234 16.7224 0.104005C15.6033 -0.0282801 14.4729 -0.0331362 13.3527 0.0891959C13.1388 0.119789 12.9439 0.22853 12.8056 0.394509C12.6672 0.560487 12.5953 0.771877 12.6038 0.987767C12.6384 1.68816 12.4613 2.38273 12.0956 2.98108C11.7299 3.57942 11.1925 4.05382 10.5535 4.34255C9.91903 4.59114 9.22373 4.63963 8.56089 4.48168C7.89805 4.32373 7.29935 3.96696 6.8452 3.45897C6.70602 3.29943 6.50997 3.20062 6.29892 3.18383C6.08788 3.16703 5.87865 3.2335 5.716 3.36902C4.81332 4.10521 4.00005 4.94471 3.29278 5.87021C3.15914 6.04655 3.09451 6.2655 3.11105 6.48614C3.1276 6.70678 3.22419 6.91381 3.38264 7.06825C3.89475 7.56608 4.24763 8.20474 4.39666 8.90323C4.54569 9.60173 4.48411 10.3287 4.21978 10.9922C3.95425 11.6338 3.50103 12.1803 2.91946 12.5599C2.33788 12.9394 1.65517 13.1343 0.960884 13.1189C0.743041 13.1083 0.529768 13.1842 0.367626 13.3301C0.205484 13.476 0.107606 13.68 0.0952213 13.8977C-0.0343446 15.0874 -0.0343446 16.2876 0.0952213 17.4772C0.148657 17.6968 0.274789 17.8917 0.453187 18.0304C0.631585 18.1691 0.85175 18.2434 1.07771 18.2411C1.75025 18.2419 2.40626 18.449 2.95721 18.8347C3.50816 19.2204 3.92752 19.766 4.15844 20.3976C4.41436 21.0575 4.47139 21.7779 4.32262 22.4699C4.17384 23.1619 3.82573 23.7951 3.32121 24.2915C3.1648 24.444 3.06927 24.6482 3.05246 24.866C3.03565 25.0837 3.09874 25.3001 3.22989 25.4748C3.92127 26.401 4.71615 27.245 5.59917 27.9908C5.76384 28.1262 5.97457 28.1925 6.18713 28.1758C6.39968 28.159 6.59747 28.0606 6.73888 27.901C7.19183 27.3834 7.79505 27.0201 8.46436 26.8617C9.13367 26.7033 9.83576 26.7577 10.4727 27.0174C11.1165 27.3144 11.655 27.7998 12.0169 28.4096C12.3787 29.0194 12.5468 29.7246 12.499 30.432C12.4859 30.6485 12.554 30.8622 12.69 31.0311C12.826 31.2 13.0201 31.3122 13.2344 31.3457C13.8066 31.4181 14.3829 31.4531 14.9597 31.4505C15.51 31.4505 16.06 31.4205 16.6071 31.3605C16.8231 31.3285 17.0194 31.2172 17.1578 31.0483C17.2962 30.8794 17.3668 30.6651 17.3559 30.447C17.3249 29.7474 17.5034 29.0546 17.8684 28.457C18.2333 27.8594 18.7683 27.3841 19.4048 27.0922C20.0408 26.8458 20.7368 26.7999 21.3997 26.9606C22.0625 27.1212 22.6604 27.4806 23.1131 27.9908C23.2525 28.1504 23.4488 28.2493 23.6601 28.2661C23.8714 28.2829 24.0808 28.2163 24.2437 28.0807C25.1484 27.3411 25.9619 26.4964 26.667 25.5645C26.8003 25.3908 26.8647 25.1742 26.8481 24.9559C26.8315 24.7376 26.7351 24.5331 26.5772 24.3815C26.0653 23.8835 25.7124 23.2449 25.5632 22.5465C25.4139 21.8481 25.4749 21.1213 25.7385 20.4576C25.9776 19.8362 26.3969 19.3003 26.9426 18.9188C27.4882 18.5372 28.1355 18.3272 28.8012 18.3158L28.987 18.3308C29.2047 18.337 29.4166 18.2598 29.5794 18.1151C29.7422 17.9704 29.8437 17.769 29.863 17.552C29.9914 16.3623 29.9909 15.1621 29.8616 13.9725ZM15.0031 20.9967C13.9572 21.0461 12.9206 20.7812 12.0266 20.236C11.1327 19.6908 10.4226 18.8904 9.98773 17.9379C9.55282 16.9855 9.41304 15.9247 9.58652 14.8921C9.76 13.8596 10.2388 12.9027 10.9611 12.1447C11.6833 11.3867 12.6161 10.8622 13.639 10.6391C14.662 10.416 15.7284 10.5044 16.7007 10.8929C17.673 11.2813 18.5067 11.952 19.0944 12.8185C19.682 13.6851 19.9967 14.7078 19.9979 15.7549C20.0284 17.1117 19.5199 18.4253 18.5837 19.4078C17.6474 20.3904 16.3598 20.9618 15.0031 20.9967Z" fill="white"/>
</svg>
